HIERARCHY
ROOT Hips
{
	OFFSET 0.000000 101.407303 0.000000
	CHANNELS 6 Xposition Yposition Zposition Xrotation Yrotation Zrotation 
	JOINT Spine
	{
		OFFSET 0.000000 12.947403 1.306900
		CHANNELS 3 Xrotation Yrotation Zrotation
		JOINT Spine1
		{
			OFFSET 0.000000 7.849935 0.023233
			CHANNELS 3 Xrotation Yrotation Zrotation
			JOINT Spine1_split
			{
				OFFSET 0.000000 7.849935 0.023233
				CHANNELS 3 Xrotation Yrotation Zrotation
				JOINT Spine2
				{
					OFFSET 0.000000 7.849935 0.023233
					CHANNELS 3 Xrotation Yrotation Zrotation
					JOINT Neck
					{
						OFFSET 0.000000 29.862503 -6.856800
						CHANNELS 3 Xrotation Yrotation Zrotation
						JOINT Head
						{
							OFFSET 0.000000 15.812698 4.504600
							CHANNELS 3 Xrotation Yrotation Zrotation
							JOINT HeadTop_End
							{
								OFFSET 0.000000 16.914200 8.548800
								CHANNELS 3 Xrotation Yrotation Zrotation
								End Site
								{
									OFFSET 0.000000 0.000000 0.000000
								}
							}
						}
					}
					JOINT LeftShoulder
					{
						OFFSET 7.846600 15.263801 -7.442750
						CHANNELS 3 Xrotation Yrotation Zrotation
						JOINT LeftShoulder_split
						{
							OFFSET 7.846600 15.263801 -7.442750
							CHANNELS 3 Xrotation Yrotation Zrotation
							JOINT LeftArm
							{
								OFFSET 16.158352 -8.507996 -0.001700
								CHANNELS 3 Xrotation Yrotation Zrotation
								JOINT LeftForeArm
								{
									OFFSET 37.385117 0.000000 0.000000
									CHANNELS 3 Xrotation Yrotation Zrotation
									JOINT LeftHand
									{
										OFFSET 41.865608 0.000000 0.000000
										CHANNELS 3 Xrotation Yrotation Zrotation
										JOINT LeftHandMiddle1
										{
											OFFSET 17.930908 0.000000 0.000000
											CHANNELS 3 Xrotation Yrotation Zrotation
											JOINT LeftHandMiddle2
											{
												OFFSET 6.842804 0.000000 0.000000
												CHANNELS 3 Xrotation Yrotation Zrotation
												JOINT LeftHandMiddle3
												{
													OFFSET 5.656097 0.000000 0.000000
													CHANNELS 3 Xrotation Yrotation Zrotation
													JOINT LeftHandMiddle4
													{
														OFFSET 4.457901 0.000000 0.000000
														CHANNELS 3 Xrotation Yrotation Zrotation
														End Site
														{
															OFFSET 0.000000 0.000000 0.000000
														}
													}
												}
											}
										}
										JOINT LeftHandThumb1
										{
											OFFSET 5.702896 -5.507935 7.195556
											CHANNELS 3 Xrotation Yrotation Zrotation
											JOINT LeftHandThumb2
											{
												OFFSET 5.408127 -3.122391 3.122385
												CHANNELS 3 Xrotation Yrotation Zrotation
												JOINT LeftHandThumb3
												{
													OFFSET 3.444435 -1.988647 1.988645
													CHANNELS 3 Xrotation Yrotation Zrotation
													JOINT LeftHandThumb4
													{
														OFFSET 4.134804 -2.387222 2.387226
														CHANNELS 3 Xrotation Yrotation Zrotation
														End Site
														{
															OFFSET 0.000000 0.000000 0.000000
														}
													}
												}
											}
										}
										JOINT LeftHandIndex1
										{
											OFFSET 17.395584 -0.582092 6.233670
											CHANNELS 3 Xrotation Yrotation Zrotation
											JOINT LeftHandIndex2
											{
												OFFSET 6.306503 0.000000 0.000000
												CHANNELS 3 Xrotation Yrotation Zrotation
												JOINT LeftHandIndex3
												{
													OFFSET 5.287003 0.000000 0.000000
													CHANNELS 3 Xrotation Yrotation Zrotation
													JOINT LeftHandIndex4
													{
														OFFSET 4.643600 0.000000 0.000000
														CHANNELS 3 Xrotation Yrotation Zrotation
														End Site
														{
															OFFSET 0.000000 0.000000 0.000000
														}
													}
												}
											}
										}
										JOINT LeftHandRing1
										{
											OFFSET 16.506798 -0.315063 -5.943797
											CHANNELS 3 Xrotation Yrotation Zrotation
											JOINT LeftHandRing2
											{
												OFFSET 6.332909 0.000000 0.000000
												CHANNELS 3 Xrotation Yrotation Zrotation
												JOINT LeftHandRing3
												{
													OFFSET 5.608902 0.000000 0.000000
													CHANNELS 3 Xrotation Yrotation Zrotation
													JOINT LeftHandRing4
													{
														OFFSET 4.489700 0.000000 0.000000
														CHANNELS 3 Xrotation Yrotation Zrotation
														End Site
														{
															OFFSET 0.000000 0.000000 0.000000
														}
													}
												}
											}
										}
										JOINT LeftHandPinky1
										{
											OFFSET 14.729645 -0.423569 -11.253377
											CHANNELS 3 Xrotation Yrotation Zrotation
											JOINT LeftHandPinky2
											{
												OFFSET 5.576202 0.000000 0.000000
												CHANNELS 3 Xrotation Yrotation Zrotation
												JOINT LeftHandPinky3
												{
													OFFSET 4.090195 0.000000 0.000000
													CHANNELS 3 Xrotation Yrotation Zrotation
													JOINT LeftHandPinky4
													{
														OFFSET 4.222305 0.000000 0.000000
														CHANNELS 3 Xrotation Yrotation Zrotation
														End Site
														{
															OFFSET 0.000000 0.000000 0.000000
														}
													}
												}
											}
										}
									}
								}
							}
						}
					}
					JOINT RightShoulder
					{
						OFFSET -7.846600 15.263801 -7.442750
						CHANNELS 3 Xrotation Yrotation Zrotation
						JOINT RightShoulder_split
						{
							OFFSET -7.846600 15.263801 -7.442750
							CHANNELS 3 Xrotation Yrotation Zrotation
							JOINT RightArm
							{
								OFFSET -16.158352 -8.507996 -0.001700
								CHANNELS 3 Xrotation Yrotation Zrotation
								JOINT RightForeArm
								{
									OFFSET -37.385117 0.000000 0.000000
									CHANNELS 3 Xrotation Yrotation Zrotation
									JOINT RightHand
									{
										OFFSET -41.865608 0.000000 0.000000
										CHANNELS 3 Xrotation Yrotation Zrotation
										JOINT RightHandThumb1
										{
											OFFSET -5.702896 -5.507935 7.195556
											CHANNELS 3 Xrotation Yrotation Zrotation
											JOINT RightHandThumb2
											{
												OFFSET -5.408127 -3.122391 3.122385
												CHANNELS 3 Xrotation Yrotation Zrotation
												JOINT RightHandThumb3
												{
													OFFSET -3.444435 -1.988647 1.988645
													CHANNELS 3 Xrotation Yrotation Zrotation
													JOINT RightHandThumb4
													{
														OFFSET -4.134804 -2.387222 2.387226
														CHANNELS 3 Xrotation Yrotation Zrotation
														End Site
														{
															OFFSET 0.000000 0.000000 0.000000
														}
													}
												}
											}
										}
										JOINT RightHandIndex1
										{
											OFFSET -17.395584 -0.582092 6.233670
											CHANNELS 3 Xrotation Yrotation Zrotation
											JOINT RightHandIndex2
											{
												OFFSET -6.306503 0.000000 0.000000
												CHANNELS 3 Xrotation Yrotation Zrotation
												JOINT RightHandIndex3
												{
													OFFSET -5.287003 0.000000 0.000000
													CHANNELS 3 Xrotation Yrotation Zrotation
													JOINT RightHandIndex4
													{
														OFFSET -4.643600 0.000000 0.000000
														CHANNELS 3 Xrotation Yrotation Zrotation
														End Site
														{
															OFFSET 0.000000 0.000000 0.000000
														}
													}
												}
											}
										}
										JOINT RightHandMiddle1
										{
											OFFSET -17.930908 0.000000 0.000000
											CHANNELS 3 Xrotation Yrotation Zrotation
											JOINT RightHandMiddle2
											{
												OFFSET -6.842804 0.000000 0.000000
												CHANNELS 3 Xrotation Yrotation Zrotation
												JOINT RightHandMiddle3
												{
													OFFSET -5.656097 0.000000 0.000000
													CHANNELS 3 Xrotation Yrotation Zrotation
													JOINT RightHandMiddle4
													{
														OFFSET -4.457901 0.000000 0.000000
														CHANNELS 3 Xrotation Yrotation Zrotation
														End Site
														{
															OFFSET 0.000000 0.000000 0.000000
														}
													}
												}
											}
										}
										JOINT RightHandRing1
										{
											OFFSET -16.506798 -0.315063 -5.943797
											CHANNELS 3 Xrotation Yrotation Zrotation
											JOINT RightHandRing2
											{
												OFFSET -6.332909 0.000000 0.000000
												CHANNELS 3 Xrotation Yrotation Zrotation
												JOINT RightHandRing3
												{
													OFFSET -5.608902 0.000000 0.000000
													CHANNELS 3 Xrotation Yrotation Zrotation
													JOINT RightHandRing4
													{
														OFFSET -4.489700 0.000000 0.000000
														CHANNELS 3 Xrotation Yrotation Zrotation
														End Site
														{
															OFFSET 0.000000 0.000000 0.000000
														}
													}
												}
											}
										}
										JOINT RightHandPinky1
										{
											OFFSET -14.729645 -0.423569 -11.253377
											CHANNELS 3 Xrotation Yrotation Zrotation
											JOINT RightHandPinky2
											{
												OFFSET -5.576202 0.000000 0.000000
												CHANNELS 3 Xrotation Yrotation Zrotation
												JOINT RightHandPinky3
												{
													OFFSET -4.090195 0.000000 0.000000
													CHANNELS 3 Xrotation Yrotation Zrotation
													JOINT RightHandPinky4
													{
														OFFSET -4.222305 0.000000 0.000000
														CHANNELS 3 Xrotation Yrotation Zrotation
														End Site
														{
															OFFSET 0.000000 0.000000 0.000000
														}
													}
												}
											}
										}
									}
								}
							}
						}
					}
				}
			}
		}
	}
	JOINT LeftUpLeg
	{
		OFFSET 15.658500 -8.406799 1.467000
		CHANNELS 3 Xrotation Yrotation Zrotation
		JOINT LeftLeg
		{
			OFFSET 0.792579 -36.604332 4.766200
			CHANNELS 3 Xrotation Yrotation Zrotation
			JOINT LeftFoot
			{
				OFFSET -0.792578 -37.534470 -7.318300
				CHANNELS 3 Xrotation Yrotation Zrotation
				JOINT LeftToeBase
				{
					OFFSET 5.840500 -16.053600 19.756901
					CHANNELS 3 Xrotation Yrotation Zrotation
					JOINT LeftToe_End
					{
						OFFSET 2.682899 1.876800 15.492800
						CHANNELS 3 Xrotation Yrotation Zrotation
						End Site
						{
							OFFSET 0.000000 0.000000 0.000000
						}
					}
				}
			}
		}
	}
	JOINT RightUpLeg
	{
		OFFSET -15.658500 -8.406799 1.467000
		CHANNELS 3 Xrotation Yrotation Zrotation
		JOINT RightLeg
		{
			OFFSET -0.792722 -36.604370 4.766100
			CHANNELS 3 Xrotation Yrotation Zrotation
			JOINT RightFoot
			{
				OFFSET 0.792723 -37.534534 -7.318300
				CHANNELS 3 Xrotation Yrotation Zrotation
				JOINT RightToeBase
				{
					OFFSET -5.840500 -16.053600 19.756901
					CHANNELS 3 Xrotation Yrotation Zrotation
					JOINT RightToe_End
					{
						OFFSET -2.682899 1.876800 15.492800
						CHANNELS 3 Xrotation Yrotation Zrotation
						End Site
						{
							OFFSET 0.000000 0.000000 0.000000
						}
					}
				}
			}
		}
	}
}
MOTION
Frames: 4
Frame Time: 0.016667
8.606398 85.809647 11.998353 -9.757042 -36.656498 -7.951544 14.181759 2.197304 -0.942647 10.391692 2.110198 -0.288596 0.000000 0.000000 0.000000 10.393057 2.103371 -0.299320 12.780804 2.779128 -4.395012 -13.608535 13.673008 -0.463075 -0.000000 0.000000 -0.000000 0.876372 -2.499603 -2.407370 0.000000 0.000000 0.000000 -42.399410 -11.370019 -58.488447 0.000093 -98.142954 0.000107 25.335187 4.235544 38.748701 1.488836 6.090163 -15.998455 0.655722 2.937392 -25.162762 0.000011 0.010112 -0.083751 -0.000001 0.000001 0.000001 -0.270072 5.816649 7.036155 7.049847 20.257178 -1.712133 10.894434 27.425537 -3.917221 0.000003 0.000000 -0.000002 1.316242 8.917236 -8.478102 0.131388 1.341388 -11.188279 0.000004 0.000009 0.000008 0.000001 0.000001 0.000003 -0.061762 1.642957 -28.616266 0.511302 2.608280 -22.177885 0.017049 0.485355 -4.025283 -0.000003 0.000002 0.000001 -0.048649 2.318106 -38.090370 0.289479 -2.076261 -17.141555 -0.000001 0.000000 -0.000006 0.000000 -0.000001 -0.000003 4.497903 16.620864 2.796697 0.000000 0.000000 0.000000 -44.571530 29.464190 66.391174 0.000245 102.735778 -0.000224 37.944904 -4.873471 -16.321475 -7.944204 -8.463135 -4.904227 4.638900 -8.638806 -0.225097 -5.633605 12.538561 -1.784063 0.000002 0.000002 -0.000001 -1.564204 5.592019 14.160061 0.122187 -1.300402 10.735276 0.000001 0.000008 0.000002 0.000002 -0.000001 -0.000002 -0.503449 0.974047 15.100414 0.416662 -2.375102 19.897678 0.031475 -0.504700 4.153146 0.000001 -0.000002 -0.000000 1.576574 -5.803083 18.491750 0.036867 -0.716617 5.891031 0.023972 -0.243800 2.006754 0.000004 0.000001 0.000002 1.726472 -5.633374 21.769947 0.126890 -1.324955 10.940259 0.005656 -0.281164 2.307866 -0.000001 0.000001 0.000000 -36.145873 5.253427 20.799278 51.604360 -3.337453 0.947637 -7.733833 1.460805 -9.840787 -0.000038 0.000007 -0.000006 -0.000000 0.000002 0.000000 -9.733540 -11.905417 -21.468282 46.619869 -1.012070 -0.702917 -25.544219 -6.149332 20.105647 -0.000006 0.000000 -0.000003 0.000000 0.000000 0.000000 
8.668086 85.674812 12.249736 -9.771408 -35.597624 -7.189856 14.373786 2.446058 -1.088715 10.508451 2.339583 -0.358901 0.000000 0.000000 0.000000 10.509598 2.331929 -0.371616 12.613626 2.579320 -4.423101 -13.470088 12.331344 -0.381515 -0.000001 0.000001 0.000000 1.113077 -3.845644 -2.943691 0.000000 0.000000 0.000000 -42.945132 -11.770861 -60.488770 -0.000648 -97.416714 -0.000632 25.064084 3.640322 38.930200 1.511551 6.097849 -16.259528 0.656013 2.938020 -25.168472 0.000014 0.006994 -0.057751 0.000003 0.000004 0.000003 -0.098563 6.116121 7.284877 6.988428 20.062074 -1.667481 10.946721 27.509121 -3.947355 -0.000001 0.000000 0.000000 1.339469 8.958019 -8.596239 0.132324 1.346112 -11.228292 0.000002 0.000010 0.000012 0.000001 -0.000004 -0.000001 -0.066332 1.645440 -28.774487 0.513312 2.613246 -22.222212 0.017529 0.491910 -4.079845 -0.000000 -0.000001 0.000001 -0.018887 2.380671 -38.447548 0.291205 -2.070654 -17.190065 0.000000 -0.000001 -0.000006 0.000003 -0.000004 -0.000003 4.819814 17.421565 3.022900 0.000000 0.000000 0.000000 -43.821633 29.022929 66.437885 0.000331 102.134940 -0.000337 37.996144 -4.076779 -17.112788 -8.123049 -8.183973 -4.981708 4.638895 -8.638810 -0.225098 -5.677650 12.668178 -1.780247 -0.000001 0.000001 -0.000002 -1.521606 5.683213 13.679937 0.121659 -1.297616 10.711957 -0.000002 0.000007 0.000003 0.000004 0.000000 -0.000001 -0.586970 1.390616 14.657565 0.409074 -2.354025 19.713707 0.041517 -0.505697 4.167389 0.000003 -0.000000 -0.000000 1.502364 -5.678968 18.018985 0.034893 -0.697098 5.730048 0.025940 -0.245653 2.022274 -0.000003 0.000000 -0.000000 1.870718 -6.029948 21.520750 0.117637 -1.276152 10.532259 0.005598 -0.279638 2.295345 -0.000001 -0.000000 -0.000001 -36.145474 5.414749 19.600512 51.656813 -3.739321 0.744413 -7.712635 1.397048 -9.178692 -0.000038 0.000005 -0.000006 0.000000 -0.000000 -0.000000 -9.391230 -12.489767 -22.785050 46.845327 -1.027942 -0.530438 -25.931558 -6.361956 20.540243 0.000006 -0.000010 0.000005 0.000000 0.000000 -0.000000 
8.661197 85.629807 12.456116 -9.787970 -34.339165 -6.321276 14.549025 2.745538 -1.196979 10.634289 2.617382 -0.421557 0.000000 0.000000 0.000000 10.635282 2.608221 -0.436530 12.408988 2.336956 -4.413807 -13.198629 10.769564 -0.346578 0.000002 0.000001 -0.000000 1.421765 -5.478102 -3.566831 0.000000 0.000000 0.000000 -43.517615 -11.858509 -62.738129 -0.000185 -96.975442 -0.000239 24.603123 3.006334 39.082172 1.513082 6.044971 -16.485992 0.656127 2.938285 -25.170873 -0.000013 0.003905 -0.032407 -0.000002 0.000001 0.000001 0.042676 6.371326 7.567304 6.925958 19.862313 -1.622022 11.003269 27.599326 -3.979947 0.000002 -0.000000 -0.000001 1.359246 8.997946 -8.689681 0.133643 1.352785 -11.284506 0.000002 0.000013 0.000010 0.000000 -0.000001 0.000001 -0.080954 1.628829 -28.920524 0.515294 2.618054 -22.265447 0.018144 0.500587 -4.151841 -0.000000 0.000003 0.000002 0.001086 2.435181 -38.880336 0.292094 -2.067803 -17.214843 -0.000002 -0.000000 -0.000005 -0.000001 0.000000 0.000000 5.289360 18.554036 3.289317 0.000000 0.000000 0.000000 -43.295910 28.070834 66.433084 0.000286 101.342044 -0.000270 38.365760 -2.881326 -17.919643 -8.308931 -7.886758 -5.151242 4.638892 -8.638810 -0.225099 -5.699431 12.732423 -1.778382 0.000001 0.000005 -0.000003 -1.472478 5.784527 13.140661 0.121705 -1.297868 10.714222 0.000001 0.000005 -0.000001 -0.000000 0.000000 -0.000001 -0.661977 1.779273 14.292904 0.403358 -2.338041 19.574388 0.051401 -0.506506 4.179900 -0.000001 0.000001 0.000001 1.431473 -5.552395 17.578381 0.032972 -0.677903 5.571836 0.028074 -0.247110 2.035085 0.000004 -0.000002 0.000000 1.964790 -6.328434 21.173793 0.108186 -1.224236 10.099458 0.005599 -0.279624 2.295221 0.000001 0.000000 0.000000 -35.992051 5.649482 18.265466 51.350810 -4.214189 0.539583 -7.473000 1.317054 -8.492679 -0.000038 0.000005 -0.000006 -0.000000 -0.000000 -0.000000 -8.814579 -13.121187 -24.008016 46.862006 -1.322287 -0.423168 -26.276224 -6.597348 21.082610 -0.000030 0.000014 -0.000001 -0.000000 0.000000 0.000000 
8.587023 85.665359 12.619314 -9.816840 -32.940773 -5.406648 14.699675 3.099563 -1.256355 10.762792 2.946149 -0.463782 0.000000 0.000000 0.000000 10.763795 2.935106 -0.481311 12.173313 2.058759 -4.365977 -12.819475 9.035388 -0.349223 0.000001 0.000002 -0.000001 1.813901 -7.378972 -4.263625 0.000000 0.000000 0.000000 -44.030029 -11.569432 -65.133025 -0.000009 -97.122845 0.000005 23.938691 2.410438 39.373046 1.489408 5.929501 -16.641336 0.655852 2.937642 -25.165038 0.000001 0.001921 -0.015802 -0.000002 0.000001 -0.000000 0.140369 6.556783 7.850910 6.866150 19.669867 -1.578468 11.059354 27.688486 -4.012311 0.000001 0.000002 0.000004 1.371833 9.031070 -8.739452 0.135163 1.360299 -11.348020 0.000003 0.000007 0.000008 0.000001 0.000000 0.000001 -0.107229 1.589871 -29.044662 0.516940 2.622104 -22.301678 0.018871 0.510507 -4.234070 -0.000003 -0.000001 0.000000 0.008862 2.476553 -39.350386 0.292157 -2.067568 -17.216791 0.000002 0.000001 -0.000006 -0.000003 0.000000 -0.000001 5.940418 20.038081 3.566634 0.000000 0.000000 0.000000 -43.169415 26.566967 66.382294 0.000297 100.417878 -0.000316 39.054974 -1.334218 -18.819569 -8.468152 -7.623277 -5.382691 4.638889 -8.638808 -0.225100 -5.700311 12.735091 -1.778378 0.000000 0.000000 -0.000000 -1.414816 5.892922 12.533924 0.121739 -1.298009 10.715057 -0.000001 0.000005 0.000000 0.000001 0.000000 -0.000000 -0.723383 2.101869 14.034677 0.399302 -2.326593 19.474451 0.060087 -0.507077 4.190015 -0.000001 -0.000001 -0.000001 1.365574 -5.421469 17.208988 0.031181 -0.659122 5.416760 0.030495 -0.248325 2.045938 -0.000000 0.000001 -0.000003 1.998990 -6.499876 20.749254 0.099390 -1.173886 9.679724 0.005645 -0.280379 2.301168 0.000001 -0.000001 -0.000001 -35.701310 5.938015 16.882354 50.738931 -4.778487 0.335362 -7.049235 1.230215 -7.806570 -0.000038 0.000007 -0.000006 -0.000000 -0.000000 0.000000 -8.015675 -13.776696 -25.062688 46.677608 -1.894314 -0.371418 -26.560741 -6.848161 21.714725 -0.000047 0.000007 0.000003 0.000000 -0.000000 0.000000 
